# xmcd CD database file
#
# Track frame offsets:
#	150
#	14324
#	26514
#	41350
#	60108
#	77126
#	93706
#	105794
#	120099
#	136217
#	150524
#	162308
#	177520
#	191640
#	210069
#	226236
#	238336
#	253787
#	266105
#	278610
#
# Disc length: 3893 seconds
#
# Revision: 0
# Processed by: cddbd v1.5.2PL0 Copyright (c) Steve Scherf et al.
# Submitted via: CDex 2.23
#
DISCID=f50f3314
DTITLE=Sasha Yokoyama - Blue Moon
DYEAR=1900
DGENRE=Jazz
TTITLE0=Sentimental Journey
TTITLE1=Fly me to the moon
TTITLE2=Night and day
TTITLE3=Day by day
TTITLE4=Blue moon
TTITLE5=Again
TTITLE6=Moon river
TTITLE7=Tea for two
TTITLE8=Falling love with love
TTITLE9=Love letters
TTITLE10=You'd be so nice to come home to
TTITLE11=Lullaby of birdland
TTITLE12=The day of wine and roses
TTITLE13=Sophisticated lady
TTITLE14=My funny Valentine
TTITLE15=On green dolphin street
TTITLE16=Satin doll
TTITLE17=Take the A train
TTITLE18=All of me
TTITLE19=Dream
EXTD=
EXTT0=
EXTT1=
EXTT2=
EXTT3=
EXTT4=
EXTT5=
EXTT6=
EXTT7=
EXTT8=
EXTT9=
EXTT10=
EXTT11=
EXTT12=
EXTT13=
EXTT14=
EXTT15=
EXTT16=
EXTT17=
EXTT18=
EXTT19=
PLAYORDER=
